<svg width="4000" height="1000" viewBox="0 0 4000 1000" fill="none" xmlns="http://www.w3.org/2000/svg">
<g clip-path="url(#clip0)">
<path d="M146.25 753.125H877.5V781.25H146.25V753.125Z" fill="#4257AD"/>
<path d="M821.25 921.875H193.125V950H821.25V921.875Z" fill="#4257AD"/>
<path d="M933.75 837.5H249.375V865.625H933.75V837.5Z" fill="#4257AD"/>
<path d="M520.581 98.8079L521.255 98.8947L521.908 99.0201L522.562 99.184L523.197 99.3769L523.832 99.5988L524.447 99.8592L525.043 100.158L525.63 100.486L526.197 100.843L526.745 101.229L527.264 101.644L527.774 102.087L528.255 102.56L528.707 103.061L529.13 103.592L529.524 104.151L529.889 104.73L530.226 105.338L530.524 105.965L530.793 106.611L531.024 107.286L531.216 107.99L531.361 108.704L531.476 109.447L531.534 110.199L531.562 110.98L531.053 331.221V696.875H306.604L305.518 695.525L299.941 688.146L294.585 680.565L289.479 672.81L284.604 664.862L279.979 656.731L275.613 648.436L271.498 639.968L267.651 631.325L264.074 622.529L260.776 613.578L257.757 604.463L255.026 595.213L185.861 345.371L185.572 344.252L185.322 343.124L185.12 342.005L184.947 340.876L184.822 339.748L184.736 338.629L184.697 337.5L184.688 336.382L184.716 335.272L184.793 334.163L184.899 333.054L185.043 331.964L185.226 330.874L185.447 329.794L185.707 328.723L185.995 327.662L186.322 326.62L186.688 325.579L187.082 324.556L187.515 323.553L187.976 322.56L188.476 321.586L189.005 320.631L189.572 319.685L190.168 318.76L190.793 317.863L191.457 316.985L192.149 316.117L192.87 315.287L193.62 314.467L194.399 313.686L195.207 312.914L196.044 312.181L196.919 311.468L197.813 310.792L198.736 310.137L199.688 309.51L200.659 308.921L201.659 308.362L202.688 307.831L210.65 303.935L218.602 299.999L226.525 296.016L234.42 291.984L242.285 287.895L250.122 283.766L257.93 279.571L265.709 275.336L273.459 271.044L281.171 266.704L288.863 262.315L296.527 257.869L304.152 253.374L311.758 248.831L319.326 244.24L326.865 239.6L334.374 234.903L341.846 230.167L349.288 225.374L356.702 220.532L364.077 215.642L371.423 210.713L378.741 205.726L386.02 200.691L393.27 195.599L400.492 190.467L407.674 185.288L414.819 180.06L421.934 174.794L429.012 169.469L436.06 164.097L443.07 158.676L450.041 153.217L456.983 147.7L463.888 142.144L470.753 136.54L477.59 130.888L484.378 125.188L491.138 119.449L497.869 113.662L504.552 107.826L511.418 101.788L512.014 101.296L512.629 100.843L513.254 100.438L513.889 100.081L514.543 99.7724L515.197 99.5023L515.86 99.2708L516.533 99.0876L517.206 98.9429L517.879 98.8368L518.562 98.7693L519.235 98.75L519.918 98.7596L520.581 98.8079Z" fill="#4257AD"/>
<path d="M562.788 50.0577L563.498 50.1442L564.199 50.2884L564.899 50.4614L565.59 50.6825L566.271 50.9517L566.933 51.2689L567.595 51.6343L568.238 52.0476L568.861 52.4994L569.466 53.0089L570.051 53.5665L570.617 54.1721L575.386 59.6421L582.409 67.6307L589.499 75.5616L596.647 83.4349L603.853 91.2408L611.125 98.9891L618.456 106.68L625.843 114.303L633.298 121.869L640.811 129.367L648.381 136.808L656.009 144.191L663.694 151.497L671.437 158.745L679.237 165.936L687.095 173.059L695.01 180.115L702.983 187.104L711.014 194.035L719.102 200.889L727.238 207.686L735.432 214.415L743.674 221.077L751.973 227.672L760.33 234.199L768.735 240.669L777.197 247.062L785.707 253.378L794.275 259.636L802.891 265.827L811.555 271.941L820.276 277.997L829.046 283.967L837.863 289.879L846.728 295.714L855.642 301.482L864.603 307.183L873.612 312.807L882.679 318.354L891.784 323.833L900.938 329.245L882.861 318.661L883.648 319.142L884.416 319.642L885.164 320.171L885.884 320.718L886.584 321.286L887.265 321.882L887.927 322.487L888.561 323.112L889.175 323.766L889.769 324.429L890.336 325.112L890.873 325.814L891.391 326.525L891.89 327.265L892.36 328.005L892.801 328.765L893.224 329.543L893.617 330.322L893.991 331.12L894.327 331.927L894.643 332.754L894.941 333.581L895.2 334.417L895.44 335.273L895.651 336.128L895.833 336.984L895.987 337.859L896.112 338.734L896.207 339.609L896.275 340.503L896.313 341.387L896.332 342.281L896.313 343.175L896.265 344.069L896.188 344.973L896.073 345.867L895.939 346.77L895.766 347.664L895.565 348.568L895.334 349.462L824.795 603.953L822.071 613.172L819.067 622.257L815.767 631.178L812.207 639.945L808.36 648.559L804.263 656.999L799.898 665.276L795.283 673.371L790.428 681.292L785.324 689.021L779.989 696.577L779.759 696.875H549.375V340.839L549.394 62.1511L549.413 61.3244L549.49 60.5169L549.615 59.7382L549.788 58.9788L549.999 58.2482L550.258 57.5464L550.555 56.8639L550.891 56.2102L551.265 55.5853L551.678 54.9893L552.109 54.4317L552.589 53.8934L553.088 53.3935L553.616 52.9224L554.172 52.4802L554.748 52.0765L555.343 51.7015L555.957 51.3651L556.59 51.0575L557.243 50.7979L557.914 50.5672L558.586 50.3749L559.277 50.2211L559.967 50.1057L560.668 50.0385L561.378 50L562.078 50.0096L562.788 50.0577Z" fill="#4257AD"/>
<path d="M90 668.75H990V696.875H90V668.75Z" fill="#4257AD"/>
<path d="M1326.45 740.8C1290.48 740.8 1255.6 736.033 1221.8 726.5C1188.43 716.533 1161.57 703.75 1141.2 688.15L1176.95 608.85C1196.45 623.15 1219.63 634.633 1246.5 643.3C1273.37 651.967 1300.23 656.3 1327.1 656.3C1357 656.3 1379.1 651.967 1393.4 643.3C1407.7 634.2 1414.85 622.283 1414.85 607.55C1414.85 596.717 1410.52 587.833 1401.85 580.9C1393.62 573.533 1382.78 567.683 1369.35 563.35C1356.35 559.017 1338.58 554.25 1316.05 549.05C1281.38 540.817 1253 532.583 1230.9 524.35C1208.8 516.117 1189.73 502.9 1173.7 484.7C1158.1 466.5 1150.3 442.233 1150.3 411.9C1150.3 385.467 1157.45 361.633 1171.75 340.4C1186.05 318.733 1207.5 301.617 1236.1 289.05C1265.13 276.483 1300.45 270.2 1342.05 270.2C1371.08 270.2 1399.47 273.667 1427.2 280.6C1454.93 287.533 1479.2 297.5 1500 310.5L1467.5 390.45C1425.47 366.617 1383.43 354.7 1341.4 354.7C1311.93 354.7 1290.05 359.467 1275.75 369C1261.88 378.533 1254.95 391.1 1254.95 406.7C1254.95 422.3 1262.97 434 1279 441.8C1295.47 449.167 1320.38 456.533 1353.75 463.9C1388.42 472.133 1416.8 480.367 1438.9 488.6C1461 496.833 1479.85 509.833 1495.45 527.6C1511.48 545.367 1519.5 569.417 1519.5 599.75C1519.5 625.75 1512.13 649.583 1497.4 671.25C1483.1 692.483 1461.43 709.383 1432.4 721.95C1403.37 734.517 1368.05 740.8 1326.45 740.8ZM1770.85 378.1C1814.19 378.1 1849.07 391.1 1875.5 417.1C1902.37 443.1 1915.8 481.667 1915.8 532.8V733H1814.4V548.4C1814.4 520.667 1808.34 500.083 1796.2 486.65C1784.07 472.783 1766.52 465.85 1743.55 465.85C1717.99 465.85 1697.62 473.867 1682.45 489.9C1667.29 505.5 1659.7 528.9 1659.7 560.1V733H1558.3V250.7H1659.7V419.7C1673.14 406.267 1689.39 396.083 1708.45 389.15C1727.52 381.783 1748.32 378.1 1770.85 378.1ZM1981.72 383.3H2083.12V733H1981.72V383.3ZM2032.42 334.55C2013.78 334.55 1998.62 329.133 1986.92 318.3C1975.22 307.467 1969.37 294.033 1969.37 278C1969.37 261.967 1975.22 248.533 1986.92 237.7C1998.62 226.867 2013.78 221.45 2032.42 221.45C2051.05 221.45 2066.22 226.65 2077.92 237.05C2089.62 247.45 2095.47 260.45 2095.47 276.05C2095.47 292.95 2089.62 307.033 2077.92 318.3C2066.22 329.133 2051.05 334.55 2032.42 334.55ZM2357.92 378.1C2390.42 378.1 2419.89 385.683 2446.32 400.85C2473.19 415.583 2494.21 436.6 2509.37 463.9C2524.54 490.767 2532.12 522.183 2532.12 558.15C2532.12 594.117 2524.54 625.75 2509.37 653.05C2494.21 679.917 2473.19 700.933 2446.32 716.1C2419.89 730.833 2390.42 738.2 2357.92 738.2C2313.29 738.2 2278.19 724.117 2252.62 695.95V859.1H2151.22V383.3H2248.07V423.6C2273.21 393.267 2309.82 378.1 2357.92 378.1ZM2340.37 655C2366.37 655 2387.61 646.333 2404.07 629C2420.97 611.233 2429.42 587.617 2429.42 558.15C2429.42 528.683 2420.97 505.283 2404.07 487.95C2387.61 470.183 2366.37 461.3 2340.37 461.3C2314.37 461.3 2292.92 470.183 2276.02 487.95C2259.56 505.283 2251.32 528.683 2251.32 558.15C2251.32 587.617 2259.56 611.233 2276.02 629C2292.92 646.333 2314.37 655 2340.37 655ZM2911.58 383.3L2753.63 754.45C2737.6 794.75 2717.66 823.133 2693.83 839.6C2670.43 856.067 2642.05 864.3 2608.68 864.3C2590.48 864.3 2572.5 861.483 2554.73 855.85C2536.96 850.217 2522.45 842.417 2511.18 832.45L2548.23 760.3C2556.03 767.233 2564.91 772.65 2574.88 776.55C2585.28 780.45 2595.46 782.4 2605.43 782.4C2619.3 782.4 2630.56 778.933 2639.23 772C2647.9 765.5 2655.7 754.45 2662.63 738.85L2663.93 735.6L2512.48 383.3H2617.13L2715.28 620.55L2814.08 383.3H2911.58ZM3056.58 378.1C3110.75 378.1 3152.35 391.1 3181.38 417.1C3210.42 442.667 3224.93 481.45 3224.93 533.45V733H3130.03V689.45C3110.97 721.95 3075.43 738.2 3023.43 738.2C2996.57 738.2 2973.17 733.65 2953.23 724.55C2933.73 715.45 2918.78 702.883 2908.38 686.85C2897.98 670.817 2892.78 652.617 2892.78 632.25C2892.78 599.75 2904.92 574.183 2929.18 555.55C2953.88 536.917 2991.8 527.6 3042.93 527.6H3123.53C3123.53 505.5 3116.82 488.6 3103.38 476.9C3089.95 464.767 3069.8 458.7 3042.93 458.7C3024.3 458.7 3005.88 461.733 2987.68 467.8C2969.92 473.433 2954.75 481.233 2942.18 491.2L2905.78 420.35C2924.85 406.917 2947.6 396.517 2974.03 389.15C3000.9 381.783 3028.42 378.1 3056.58 378.1ZM3048.78 669.95C3066.12 669.95 3081.5 666.05 3094.93 658.25C3108.37 650.017 3117.9 638.1 3123.53 622.5V586.75H3053.98C3012.38 586.75 2991.58 600.4 2991.58 627.7C2991.58 640.7 2996.57 651.1 3006.53 658.9C3016.93 666.267 3031.02 669.95 3048.78 669.95ZM3387.55 429.45C3399.69 412.55 3415.94 399.767 3436.3 391.1C3457.1 382.433 3480.94 378.1 3507.8 378.1V471.7C3496.54 470.833 3488.95 470.4 3485.05 470.4C3456.02 470.4 3433.27 478.633 3416.8 495.1C3400.34 511.133 3392.1 535.4 3392.1 567.9V733H3290.7V383.3H3387.55V429.45ZM3895.12 250.7V733H3798.27V692.7C3773.14 723.033 3736.74 738.2 3689.07 738.2C3656.14 738.2 3626.24 730.833 3599.37 716.1C3572.94 701.367 3552.14 680.35 3536.97 653.05C3521.81 625.75 3514.22 594.117 3514.22 558.15C3514.22 522.183 3521.81 490.55 3536.97 463.25C3552.14 435.95 3572.94 414.933 3599.37 400.2C3626.24 385.467 3656.14 378.1 3689.07 378.1C3733.71 378.1 3768.59 392.183 3793.72 420.35V250.7H3895.12ZM3706.62 655C3732.19 655 3753.42 646.333 3770.32 629C3787.22 611.233 3795.67 587.617 3795.67 558.15C3795.67 528.683 3787.22 505.283 3770.32 487.95C3753.42 470.183 3732.19 461.3 3706.62 461.3C3680.62 461.3 3659.17 470.183 3642.27 487.95C3625.37 505.283 3616.92 528.683 3616.92 558.15C3616.92 587.617 3625.37 611.233 3642.27 629C3659.17 646.333 3680.62 655 3706.62 655Z" fill="#4257AD"/>
</g>
<defs>
<clipPath id="clip0">
<rect width="4000" height="1000" fill="#4257AD"/>
</clipPath>
</defs>
</svg>
